<svg height="512" viewBox="0 0 64 64" width="512" xmlns="http://www.w3.org/2000/svg"><g id="Electric_Loop" data-name="Electric Loop"><path d="m31 28v-11.76l-9.38 18.76h10.38a1 1 0 0 1 1 1v11.76l9.38-18.76h-10.38a1 1 0 0 1 -1-1z"/><path d="m58.78 9.46.71.71-2.83 2.83a3.991 3.991 0 0 1 -4.85.61l-5.1 5.1-1.42-1.42 5.1-5.1a3.991 3.991 0 0 1 .61-4.85l2.83-2.83.71.71 3.53-3.53 1.42 1.41-3.53 3.54 1.41 1.41 3.53-3.54 1.41 1.42z"/><path d="m13.76 12.34-1.42 1.42 3.54 3.53-1.42 1.42-3.53-3.54-.71.71-2.83-2.83a3.989 3.989 0 0 1 -.6-4.85l-5.1-5.1 1.41-1.41 5.1 5.1a3.989 3.989 0 0 1 4.85.6l2.83 2.83-.71.71 3.54 3.53-1.42 1.42z"/><path d="m62.31 60.9-1.41 1.41-5.1-5.1a3.989 3.989 0 0 1 -4.85-.6l-2.83-2.83.71-.71-3.54-3.53 1.42-1.42 3.53 3.54 1.42-1.42-3.54-3.53 1.42-1.42 3.53 3.54.71-.71 2.83 2.83a3.989 3.989 0 0 1 .6 4.85z"/><path d="m13.61 51.81a3.991 3.991 0 0 1 -.61 4.85l-2.83 2.83-.71-.71-3.53 3.53-1.42-1.41 3.54-3.53-1.41-1.41-3.54 3.53-1.41-1.42 3.53-3.53-.71-.71 2.83-2.83a3.991 3.991 0 0 1 4.85-.61l5.1-5.1 1.42 1.42z"/></g></svg>